#!OML:ASF H:\Male1\Project 1\Capture day 1\Session 1\Male1.ASF
:FULLY-SPECIFIED
:DEGREES
746
root 33.5277 14.6597 -12.785 -1062.45 71.8226 -338.321
lowerback 13.0744 -2.5546 -4.29037
upperback 8.60353 -3.41059 -2.87268
thorax 1.82184 -1.6399 -0.207214
lowerneck -8.79818 -7.51624 -6.07458
upperneck 10.7911 -11.085 14.2206
head 5.86829 -4.72421 4.55652
rclavicle 2.66371e-014 2.04748e-014
rhumerus -68.0129 7.97629 -83.1851
rradius 66.457
rwrist -33.1001
rhand -39.689 25.7455
rfingers 7.12502
rthumb -12.668 -3.85035
lclavicle 2.66371e-014 2.04748e-014
lhumerus -47.1743 4.42371 66.8624
lradius 111.729
lwrist 19.532
lhand -24.9581 7.20057
lfingers 7.12502
lthumb 1.55206 37.1747
rfemur -29.2178 5.13357 38.6286
rtibia 42.343
rfoot -21.85 -17.7582
rtoes -2.81881
lfemur 6.78098 -1.23321 -13.5082
ltibia 41.889
lfoot -11.8029 3.41454
ltoes -34.4212
747
root 34.007 14.6677 -12.7197 -1060.26 70.3576 -335.769
lowerback 12.5804 -2.50962 -5.54587
upperback 8.54433 -3.45118 -3.05302
thorax 2.10567 -1.71331 0.281948
lowerneck -8.58944 -7.70259 -6.16149
upperneck 10.6659 -11.3345 14.3164
head 5.83101 -4.85702 4.58196
rclavicle 3.97569e-015 1.45113e-014
rhumerus -69.5195 7.45156 -82.5437
rradius 67.2739
rwrist -32.286
rhand -38.4935 24.8256
rfingers 7.12502
rthumb -11.5153 -4.83807
lclavicle 3.97569e-015 1.45113e-014
lhumerus -47.1826 3.76872 68.6348
lradius 117.315
lwrist 18.2962
lhand -24.4951 5.54057
lfingers 7.12502
lthumb 1.99917 35.511
rfemur -27.7808 6.72083 37.2673
rtibia 39.1945
rfoot -22.3359 -17.745
rtoes 4.35833
lfemur 6.31801 -1.03152 -13.9742
ltibia 45.3292
lfoot -9.81438 0.251181
ltoes -32.31
748
root 34.4832 14.6349 -12.6575 -1057.29 68.5545 -332.232
lowerback 12.199 -2.37985 -7.35661
upperback 8.44283 -3.42191 -3.35668
thorax 2.32285 -1.76789 0.944251
lowerneck -8.36431 -7.93329 -6.26699
upperneck 10.5723 -11.6342 14.314
head 5.80119 -5.02113 4.57453
rclavicle -1.00933e-013 -3.598e-014
rhumerus -70.4469 6.67778 -81.5191
rradius 68.0891
rwrist -31.2677
rhand -37.0946 23.8437
rfingers 7.12502
rthumb -10.1659 -5.89065
lclavicle -1.00933e-013 -3.598e-014
lhumerus -47.4936 2.91922 70.9631
lradius 122.352
lwrist 16.9128
lhand -24.1866 3.83169
lfingers 7.12502
lthumb 2.29718 33.7991
rfemur -26.3949 8.02306 35.4046
rtibia 37.6334
rfoot -22.5372 -17.6713
rtoes 9.09276
lfemur 5.48785 -1.07435 -15.0328
ltibia 49.0894
lfoot -8.68153 -1.27865
ltoes -30.9732
749
root 34.9543 14.5621 -12.5995 -1054.9 66.6846 -329.188
lowerback 11.9415 -2.2466 -9.19843
upperback 8.28659 -3.39552 -3.60365
thorax 2.42805 -1.82279 1.6847
lowerneck -8.08758 -8.1618 -6.37581
upperneck 10.4797 -11.9162 14.1879
head 5.75285 -5.18709 4.53232
rclavicle 2.54196e-014 1.67476e-014
rhumerus -70.6333 5.90852 -80.3803
rradius 68.5926
rwrist -30.8707
rhand -36.0303 22.9563
rfingers 7.12502
rthumb -9.13901 -6.82566
lclavicle 2.54196e-014 1.67476e-014
lhumerus -48.132 2.03018 73.7432
lradius 126.433
lwrist 15.3775
lhand -23.9 2.32871
lfingers 7.12502
lthumb 2.57391 32.2929
rfemur -24.9702 8.63299 33.7282
rtibia 37.2417
rfoot -22.9353 -17.1849
rtoes 11.4143
lfemur 4.17186 -1.32654 -16.0398
ltibia 53.0738
lfoot -8.54057 -1.03692
ltoes -30.0677
750
root 35.4139 14.4578 -12.5426 -1054.02 65.0281 -327.772
lowerback 11.7833 -2.10439 -10.4606
upperback 8.07899 -3.32769 -3.63557
thorax 2.3875 -1.8355 2.33332
lowerneck -7.74534 -8.40782 -6.50096
upperneck 10.3453 -12.2072 13.9813
head 5.6766 -5.36736 4.46969
rclavicle 3.21037e-014 -1.04362e-015
rhumerus -70.0101 5.09543 -79.323
rradius 68.7458
rwrist -31.5786
rhand -35.6598 22.2405
rfingers 7.12502
rthumb -8.78149 -7.55684
lclavicle 3.21037e-014 -1.04362e-015
lhumerus -48.9583 1.18339 76.7685
lradius 129.136
lwrist 13.7136
lhand -23.5957 1.21657
lfingers 7.12502
lthumb 2.86783 31.177
rfemur -23.4823 8.93887 32.8376
rtibia 37.5304
rfoot -23.4853 -16.9288
rtoes 12.7005
lfemur 2.23714 -1.75528 -16.3215
ltibia 57.1396
lfoot -9.03133 0.792954
ltoes -29.7085
751
root 35.8608 14.3357 -12.4862 -1054.87 63.7285 -328.362
lowerback 11.6958 -1.98319 -10.8815
upperback 7.84849 -3.24026 -3.32875
thorax 2.22876 -1.81373 2.88205
lowerneck -7.36593 -8.62491 -6.61887
upperneck 10.1535 -12.4386 13.6472
head 5.56049 -5.52976 4.37497
rclavicle 3.72721e-015 -1.8487e-014
rhumerus -68.4454 4.44412 -78.5112
rradius 68.4526
rwrist -33.5372
rhand -36.2131 21.8935
rfingers 7.12502
rthumb -9.31542 -7.8807
lclavicle 3.72721e-015 -1.8487e-014
lhumerus -49.906 0.746103 79.7105
lradius 130.155
lwrist 12.0538
lhand -23.342 0.675264
lfingers 7.12502
lthumb 3.11278 30.6323
rfemur -21.8852 9.33862 33.0105
rtibia 38.0643
rfoot -24.4885 -16.9507
rtoes 12.5437
lfemur -0.33 -2.40596 -15.5988
ltibia 61.1238
lfoot -9.79162 3.62145
ltoes -28.4542
752
root 36.2913 14.2147 -12.4272 -1056.8 62.7044 -330.323
lowerback 11.628 -1.89064 -10.5443
upperback 7.63236 -3.13205 -2.79928
thorax 2.02069 -1.75977 3.25033
lowerneck -6.92721 -8.81964 -6.66749
upperneck 9.80265 -12.6248 13.2444
head 5.37132 -5.67892 4.25806
rclavicle 4.46272e-014 0
rhumerus -65.9304 4.0027 -78.1252
rradius 67.6741
rwrist -36.3176
rhand -37.4895 22.1049
rfingers 7.12502
rthumb -10.5469 -7.61049
lclavicle 4.46272e-014 0
lhumerus -50.8377 0.839524 82.1195
lradius 129.329
lwrist 10.7277
lhand -23.264 0.912437
lfingers 7.12502
lthumb 3.18816 30.8683
rfemur -20.3274 9.81156 33.9674
rtibia 38.7067
rfoot -25.7502 -17.2979
rtoes 11.6593
lfemur -3.50782 -3.49017 -14.2464
ltibia 64.7551
lfoot -10.7855 6.83691
ltoes -25.6404
753
root 36.7019 14.1112 -12.364 -1059.88 61.728 -333.821
lowerback 11.554 -1.78987 -9.38702
upperback 7.44835 -2.9379 -2.08491
thorax 1.78777 -1.64028 3.3515
lowerneck -6.48124 -8.9924 -6.63346
upperneck 9.30899 -12.774 12.8087
head 5.12611 -5.81263 4.12636
rclavicle -5.06901e-014 2.54444e-014
rhumerus -62.6514 3.9161 -78.2212
rradius 66.6582
rwrist -39.0682
rhand -38.836 22.6956
rfingers 7.12502
rthumb -11.8455 -6.94939
lclavicle -5.06901e-014 2.54444e-014
lhumerus -51.7245 1.45849 83.6975
lradius 126.691
lwrist 9.93231
lhand -23.4744 2.01758
lfingers 7.12502
lthumb 2.98498 31.9764
rfemur -18.9323 10.5296 35.6957
rtibia 39.4076
rfoot -27.0271 -17.7407
rtoes 10.3565
lfemur -7.24061 -4.94998 -12.2962
ltibia 67.8581
lfoot -11.916 9.65106
ltoes -21.4958
754
root 37.0852 14.0388 -12.291 -1062.32 60.4491 -336.796
lowerback 11.5541 -1.64698 -8.41684
upperback 7.30953 -2.69675 -1.48206
thorax 1.57214 -1.49999 3.43047
lowerneck -6.06689 -9.1404 -6.49503
upperneck 8.70367 -12.8917 12.3771
head 4.84326 -5.92767 3.98636
rclavicle -2.92213e-014 -3.97569e-015
rhumerus -58.9286 4.34979 -78.8599
rradius 65.8252
rwrist -41.1577
rhand -39.6969 23.458
rfingers 7.12502
rthumb -12.6755 -6.13738
lclavicle -2.92213e-014 -3.97569e-015
lhumerus -52.5759 2.40689 84.3707
lradius 122.468
lwrist 9.89468
lhand -24.0377 3.83291
lfingers 7.12502
lthumb 2.44092 33.7987
rfemur -17.7398 11.4141 37.0933
rtibia 40.2384
rfoot -28.4706 -17.7587
rtoes 8.70843
lfemur -11.349 -6.93326 -10.9101
ltibia 70.1597
lfoot -13.0799 12.0005
ltoes -17.4183
